<?xml version="1.0" encoding="utf-8"?>
<!-- Generator: Adobe Illustrator 27.5.0, SVG Export Plug-In . SVG Version: 6.00 Build 0)  -->
<svg version="1.1" id="Layer_1" xmlns="http://www.w3.org/2000/svg" xmlns:xlink="http://www.w3.org/1999/xlink" x="0px" y="0px"
	 viewBox="0 0 1920 1080" style="enable-background:new 0 0 1920 1080;" xml:space="preserve">
<g>
	<defs>
		<rect id="SVGID_1_" width="1920" height="1080"/>
	</defs>
	<clipPath id="SVGID_00000103985821714986217810000003130595993328446866_">
		<use xlink:href="#SVGID_1_"  style="overflow:visible;"/>
	</clipPath>
	
		<rect style="clip-path:url(#SVGID_00000103985821714986217810000003130595993328446866_);fill-rule:evenodd;clip-rule:evenodd;fill:#FFFFFF;" width="1920" height="1080"/>
	<g style="clip-path:url(#SVGID_00000103985821714986217810000003130595993328446866_);">
		<path style="fill:#81C67A;" d="M-3.343,965.883c0,38.035,0,76.082,0,114.117c23.813,0,47.634,0,71.447,0
			c6.284-31.641,12.57-63.291,18.854-94.932c-0.11-0.221-0.221-0.441-0.331-0.662C56.641,978.232,26.644,972.057-3.343,965.883z"/>
		<path style="fill:#81C67A;" d="M35.358,92.969c29.216-15.986,58.44-31.977,87.655-47.962c-0.461-4.386-3.12-7.471-4.631-10.916
			c-4.961-11.245-9.924-22.494-14.885-33.739c-20.616,0-41.239,0-61.855,0c3.496,7.707,12.568,14.902,13.893,23.816
			c-5.843,3.307-11.688,6.616-17.531,9.923C24.333,29.24,10.659,24.388-3.012,19.537c-0.11,0-0.221,0-0.331,0
			c0,20.506,0,41.018,0,61.524C2.142,82.864,31.477,93.877,35.358,92.969z"/>
		<path style="fill:#81C67A;" d="M77.035,195.84c56.998-34.177,114.013-68.363,171.01-102.54c1.674-3.743-8.252-19.98-10.254-24.147
			c-10.804-22.931-21.612-45.87-32.416-68.801c-17.419,0-34.843,0-52.262,0c12.237,23.152,24.479,46.311,36.716,69.463
			c-3.567,5.076-24.798,14.554-31.424,18.523c-30.759,17.97-61.527,35.946-92.286,53.916c-4.066,1.193-16.527-3.565-20.177-4.631
			c-16.427-4.3-32.859-8.601-49.285-12.9c0,17.86,0,35.725,0,53.585c19.404,4.3,38.813,8.601,58.216,12.9
			C59.258,192.242,72.405,197.213,77.035,195.84z"/>
		<path style="fill:#81C67A;" d="M1919.118,404.889c0.882-12.458,1.764-24.92,2.646-37.378c2.44-15.916,1.323-33.69,1.323-51.27
			c0-28.995,0-57.999,0-86.994c-25.467-5.292-50.942-10.585-76.409-15.877c-1.836-3.654-1.394-8.915-2.315-13.562
			c-2.095-13.56-4.19-27.125-6.285-40.685c-6.615-40.35-13.232-80.713-19.846-121.063c13.781-7.276,27.566-14.555,41.347-21.831
			c0.22,0.11,0.441,0.22,0.661,0.331c1.764,50.714,3.528,101.443,5.292,152.156c19.073,4.851,38.151,9.703,57.224,14.554
			c0.11,0,0.221,0,0.331,0c0-17.86,0-35.725,0-53.586c-10.253-2.536-20.509-5.072-30.762-7.608c-0.331-0.11-0.662-0.221-0.992-0.331
			c5.843-40.461,11.688-80.933,17.531-121.394c-34.177,0-68.364,0-102.54,0c-1.543,1.654-3.087,3.308-4.631,4.962
			c-9.371,7.166-18.745,14.334-28.116,21.5c-3.349-3.5-2.162-20.182-4.3-25.8c-2.07-1.793-22.481-0.662-27.124-0.662
			c-25.908,0-51.824,0-77.732,0c-2.866,14.773-5.734,29.551-8.6,44.324c-0.221,0.221-0.441,0.441-0.662,0.661
			c-11.907-2.315-23.817-4.631-35.724-6.946c-0.441-0.441-0.882-0.882-1.323-1.323c2.756-12.237,5.513-24.479,8.269-36.716
			c-14.663,0-29.33,0-43.993,0c-2.315,11.466-4.631,22.935-6.946,34.401c-0.11,0.331-0.221,0.662-0.331,0.992
			c-11.135-4.41-22.273-8.821-33.408-13.231c0.992-7.387,1.985-14.775,2.977-22.162c-13.23,0-26.463,0-39.693,0
			c-0.551,4.3-1.103,8.601-1.654,12.9c-0.22,0.221-0.441,0.441-0.662,0.662c-24.034-2.536-48.075-5.072-72.109-7.608
			c-47.227-7.984-103.95-6.126-158.772-5.954c-0.204,9.182-2.534,17.985-4.3,26.131c-1.764,9.922-3.528,19.847-5.292,29.77
			c3.174,4.013,21.609,10.503,27.454,12.239c2.12,3.743,1.708,9.571,2.646,14.554c1.764,11.025,3.528,22.053,5.292,33.077
			c-0.11,0.221-0.22,0.441-0.331,0.662c-20.726-8.489-41.459-16.981-62.186-25.47c-5.272-2.169-21.615-6.881-24.477-10.585
			c6.284-26.79,12.57-53.588,18.854-80.378c-14.663,0-29.33,0-43.993,0c-4.961,24.144-9.924,48.296-14.885,72.44
			c-1.192,4.697-7.001,22.574-5.623,26.462c2.392,3.243,29.212,12.067,35.062,14.554c31.31,12.678,62.63,25.361,93.94,38.039
			c0.87,6.658-6.897,23.354-9.262,30.1c-8.158,23.924-16.319,47.854-24.477,71.778c-19.844,57.659-39.695,115.336-59.539,172.995
			c-7.717,13.009-15.437,26.022-23.154,39.031c-4.079,7.387-8.16,14.775-12.239,22.162c-14.552,12.568-29.11,25.14-43.662,37.708
			c-0.551,0-1.103,0-1.654,0c-23.262-51.816-46.531-103.648-69.793-155.464c25.577-10.253,51.162-20.509,76.74-30.762
			c0.221,0.11,0.441,0.221,0.662,0.331c1.543,8.489,3.087,16.981,4.631,25.47c-12.678,7.387-25.361,14.775-38.039,22.162
			c-1.608,3.781,4.209,12.898,5.954,16.87c6.615,14.001,13.232,28.007,19.846,42.008c1.764,4.014,3.604,12.147,7.277,14.223
			c3.969-4.3,7.939-8.601,11.908-12.9c5.835-7.214,14.235-12.749,19.185-20.839c6.505-20.175,13.011-40.357,19.516-60.532
			c11.907-37.043,23.817-74.097,35.724-111.14c8.379-26.349,16.76-52.706,25.139-79.055c-3.867-4.397-28.644-12.823-35.724-15.877
			c-21.388-9.261-42.782-18.524-64.17-27.785c-9.283-3.986-19.33-10.61-29.77-12.569c-1.546-4.155,6.545-25.199,8.269-30.762
			c8.379-29.546,16.76-59.101,25.139-88.648c-34.618,0-69.245,0-103.863,0c2.8,2.171,29.169,6.187,34.731,6.615
			c0.331,0.331,0.662,0.662,0.992,0.992c-5.623,19.734-11.247,39.474-16.87,59.209c-8.093,26.417-13.057,53.894-23.485,78.724
			c0.11,0.662,0.22,1.323,0.331,1.985c29.767,12.568,59.542,25.14,89.309,37.708c8.93,3.859,17.863,7.719,26.793,11.577
			c3.959,1.71,8.945,2.855,11.908,5.623c-7.166,23.372-14.334,46.752-21.5,70.124c-12.122,7.063-27.824,9.607-41.347,14.885
			c-40.35,14.222-80.713,28.448-121.063,42.67c-0.331,0.221-0.662,0.441-0.992,0.662c1.047,9.749,11.614,27.113,15.546,36.385
			c11.466,26.57,22.935,53.147,34.401,79.717c4.3,9.591,8.601,19.186,12.9,28.777c0.755,1.716,5.157,7.366,3.969,9.923
			c-12.899,10.363-25.802,20.73-38.701,31.093c-24.144,19.734-48.296,39.474-72.44,59.209c-9.345,7.281-26.095,18.313-33.077,27.124
			c20.234,40.417,36.735,83.311,54.578,125.364c6.611,15.581,13.342,31.025,20.177,46.97c3.197,7.607,6.395,15.216,9.592,22.823
			c3.908,1.467,27.985-9.715,33.408-11.908c30.649-11.907,61.307-23.817,91.955-35.724c0.22,0.11,0.441,0.221,0.662,0.331
			c10.143,54.021,20.288,108.058,30.431,162.079c6.872,3.962,31.985,0.759,42.339,2.315c31.42,1.433,62.85,2.867,94.271,4.3
			c1.368,6.198-3.567,29.077-4.962,36.385c-4.079,28.774-8.16,57.558-12.239,86.332c-4.209,2.404-10.164,2.399-15.546,3.638
			c-10.914,2.315-21.832,4.631-32.747,6.946c-1.657-1.784-0.211-19.683,0.331-24.146c0.992-15.655,1.985-31.315,2.977-46.97
			c0.331-7.056,0.661-14.114,0.992-21.17c-38.586-0.331-77.185-0.662-115.771-0.992c-11.796-45.201-23.596-90.416-35.393-135.617
			c-3.828-1.374-24.516,7.711-29.77,9.592c-28.223,9.812-56.455,19.627-84.678,29.439c-23.593-59.313-47.193-118.644-70.786-177.957
			c-12.237-31.31-24.479-62.63-36.716-93.94c51.265-35.389,102.545-70.789,153.81-106.179
			c-25.026-57.549-50.06-115.115-75.086-172.664c42.445-18.191,84.903-36.387,127.348-54.578
			c5.71-2.492,34.246-13.081,36.385-16.208c1.654-5.182,3.308-10.365,4.962-15.546c-3.63-4.407-13.348-6.219-18.854-8.6
			c-16.427-7.166-32.859-14.334-49.285-21.5c-4.3-9.04-8.601-18.083-12.9-27.124c-5.182-10.804-10.365-21.612-15.546-32.416
			c9.261-45.312,18.524-90.637,27.785-135.948c0-0.11,0-0.221,0-0.331c-26.459,0-52.927,0-79.386,0
			c-1.213,30.759-2.426,61.527-3.638,92.286c-30.979,2.756-61.968,5.513-92.948,8.269c-7.387-15.214-14.775-30.433-22.162-45.647
			c3.076-2.914,13.275-1.217,18.193-1.985c15.655-1.323,31.315-2.646,46.97-3.969c3.412-5.895,1.869-39.148,2.646-48.955
			c-16.317,0-32.638,0-48.955,0c-0.441,4.189-0.882,8.38-1.323,12.569c-4.782,0.756-11.315-1.331-15.877-2.315
			c-11.686-1.985-23.376-3.969-35.062-5.954c-6.648-1.44-14.847-1.369-19.846-4.3c-36.161,0-72.333,0-108.494,0
			c3.977,4.288,12.358,5.952,17.862,8.6c20.396,9.591,40.798,19.186,61.193,28.777c2.756,6.505,5.513,13.011,8.269,19.516
			c7.828,18.742,15.657,37.49,23.485,56.232c-0.796,3.629-6.981,3.812-10.254,4.962c-9.702,3.197-19.406,6.395-29.108,9.592
			c-27.893,9.481-55.793,18.965-83.686,28.447c-12.458,3.969-24.92,7.939-37.378,11.908c-4.738,2.174-20.449,29.009-24.477,35.062
			c-18.742,27.782-37.49,55.573-56.232,83.355c3.246,5.5,9.978,10.26,14.885,14.223c9.371,8.82,18.745,17.642,28.116,26.462
			c25.026,24.034,50.06,48.075,75.086,72.109c0,0.441,0,0.882,0,1.323c-11.907,3.528-23.817,7.057-35.724,10.585
			c-5.771,1.817-11.953,5.196-18.854,5.292c-14.112-17.75-28.227-35.505-42.339-53.255c-0.22,0-0.441,0-0.661,0
			c-2.985,2.447-4.227,7.205-6.285,10.585c-7.276,12.348-14.555,24.699-21.831,37.047c-16.978,29.436-33.961,58.881-50.939,88.317
			c-5.182,9.04-10.365,18.083-15.546,27.123c-2.317,3.902-6.25,8.043-7.277,12.9c4.217,5.504,11.632,9.035,17.2,13.231
			c16.427,12.678,32.859,25.361,49.285,38.039c7.297,5.352,16.884,10.512,22.493,17.531c-0.939,5.549-18.703,25.492-22.823,31.093
			c-19.955,27.01-39.915,54.029-59.87,81.04c-6.428-0.838-27.276-15.48-33.408-19.516c0.782-7.057,9.555-14.034,13.231-19.185
			c10.914-15.214,21.832-30.433,32.747-45.647c3.702-5.211,12.047-12.031,13.231-18.854c-26.57-26.459-53.147-52.927-79.717-79.386
			c-1.685-2.879,3.834-8.723,5.292-11.246c6.505-11.135,13.011-22.273,19.516-33.408c26.971-45.469,53.021-91.203,80.709-135.948
			c-0.525-6.704-8.252-11.917-11.577-16.539c-12.458-15.876-24.92-31.756-37.378-47.632c28.554-39.028,57.117-78.067,85.671-117.094
			c8.273-11.592,16.64-22.963,24.808-34.401c3.501-4.902,6.532-11.207,11.246-14.885c0-0.551,0-1.103,0-1.654
			c-9.922-11.025-19.847-22.053-29.77-33.077c-16.868-18.632-33.741-37.269-50.608-55.901c0-0.441,0-0.882,0-1.323
			c12.568-8.158,25.14-16.319,37.708-24.477c10.363,12.568,20.73,25.14,31.093,37.708c19.404,24.034,38.813,48.075,58.216,72.109
			c11.238-0.588,25.093-7.673,35.393-10.916c20.065-6.394,40.136-12.791,60.201-19.185c0.422-2.976-1.082-5.954-1.985-8.6
			c-0.882-2.866-1.764-5.734-2.646-8.6c-2.317-3.357-23.265-8.81-28.447-10.916c-18.411-7.166-36.828-14.334-55.239-21.5
			c-12.017-13.34-24.038-26.684-36.054-40.024c-79.268,0-158.559,0-237.827,0c0,0.11,0,0.221,0,0.331
			c24.806,10.033,49.619,20.068,74.424,30.1c6.379,4.279,15.972,19.786,21.17,26.462c12.483,16.037,25.078,31.948,37.047,48.624
			c5.245,7.308,14.315,15.204,17.2,24.147c-17.97,33.295-35.946,66.599-53.916,99.894c-38.586-8.158-77.185-16.319-115.771-24.477
			c-17.529,22.931-35.064,45.87-52.593,68.801c-1.953,2.551-17.276,20.389-16.869,22.162c13.009,22.27,26.022,44.547,39.031,66.816
			c-6.835,6.835-13.673,13.673-20.508,20.508c-2.817,2.817-6.814,5.521-8.6,9.262c-0.551,0-1.103,0-1.654,0
			c-20.175-35.169-40.357-70.348-60.532-105.517c24.475-30.428,48.957-60.866,73.432-91.294c8.414-11.169,17.451-21.701,25.8-32.747
			c3.134-4.146,6.133-10.495,10.585-13.231c37.263,10.473,74.538,20.95,111.802,31.424c6.615-13.56,13.232-27.125,19.846-40.685
			c-1.162-6.877-8.96-14.092-12.569-19.516c-4.43-6.658-15.496-26.406-21.17-30.1c-23.593-9.371-47.193-18.745-70.786-28.116
			c-2.315-5.182-4.631-10.365-6.946-15.546c-4.961-11.355-9.924-22.714-14.885-34.07c-1.874-4.41-3.749-8.821-5.623-13.231
			c-23.372,0-46.752,0-70.124,0c0,0.11,0,0.221,0,0.331c12.237,27.782,24.479,55.573,36.716,83.355
			c1.444,3.344,12.989,25.211,11.908,27.785c-4.63,3.087-9.262,6.175-13.893,9.262c-12.543,8.431-25.052,16.667-38.039,24.808
			c-36.492,23.152-72.995,46.311-109.486,69.463c-15.435,9.702-30.874,19.406-46.308,29.108
			c-34.287-6.946-68.584-13.893-102.871-20.839c0,48.398,0,96.812,0,145.21c0.551-5.402,1.103-10.806,1.654-16.208
			c1.433-17.75,2.867-35.505,4.3-53.255c0.11-0.221,0.221-0.441,0.331-0.662c49.501-3.087,99.017-6.175,148.518-9.262
			c6.174,14.773,12.349,29.551,18.523,44.324c-0.11,0.221-0.221,0.441-0.331,0.662c-44.981,5.953-89.975,11.908-134.956,17.862
			c-0.331,0.221-0.662,0.441-0.992,0.662c6.505,27.341,13.011,54.691,19.516,82.032c0,0.11,0,0.221,0,0.331
			c-7.273,3.884-17.866,3.824-26.462,5.954c-10.033,2.205-20.068,4.411-30.1,6.615c0,65.818,0,131.655,0,197.472
			c9.549,22.959,17.065,48.471,26.131,72.109c4.079,12.127,8.159,24.258,12.239,36.385c-0.11,0.221-0.221,0.441-0.331,0.661
			c-12.678-4.3-25.361-8.601-38.039-12.9c0,19.845,0,39.695,0,59.539c19.624,7.056,39.254,14.114,58.878,21.17
			c29.326,3.418,58.66,6.836,87.986,10.254c0.551,13.34,1.103,26.684,1.654,40.024c-14.001-1.654-28.007-3.308-42.008-4.962
			c-35.5-4.52-71.01-9.042-106.509-13.562c0,20.065,0,40.136,0,60.201c14.222,4.189,28.448,8.38,42.67,12.569
			c15.214,3.087,30.433,6.175,45.647,9.262c19.293,3.638,38.592,7.277,57.885,10.916c0.331,0.331,0.662,0.661,0.992,0.992
			c-9.261,43.989-18.524,87.99-27.785,131.979c17.64,0,35.284,0,52.924,0c10.694-69.676,21.391-139.373,32.085-209.049
			c3.418-24.806,6.836-49.619,10.254-74.424c12.237-2.756,24.479-5.513,36.716-8.269c0.11,0.11,0.221,0.221,0.331,0.331
			c-12.789,85.662-25.581,171.35-38.37,257.012c2.565,4.132,24.903,11.358,30.762,13.893c14.259,6.168,30.119,12.813,43.331,20.508
			c31.861,0,63.732,0,95.594,0c0.924-8.78,14.139-31.501,12.9-37.047c-1.798-2.984-28.086-15.536-32.747-16.87
			c-1.444-2.843,0.287-8.418,1.323-12.239c2.646-12.017,5.293-24.038,7.939-36.054c1.291-1.505,16.702,6.66,19.846,8.269
			c20.175,10.363,40.357,20.73,60.532,31.093c-0.993,6.547-5.521,12.021-7.939,17.531c-6.835,14.773-13.673,29.551-20.508,44.324
			c0,0.331,0,0.661,0,0.992c18.081,0,36.166,0,54.247,0c0-0.992,0-1.985,0-2.977c3.419-1.375,10.013,1.532,12.9,2.977
			c7.497,0,14.996,0,22.493,0c33.736,0,67.481,0,101.217,0c2.205-6.505,4.411-13.011,6.615-19.516
			c-95.584-54.021-191.197-108.058-286.781-162.08c-3.163,3.948-5.063,28.56-6.615,35.724c-5.733,33.295-11.467,66.599-17.2,99.894
			c-0.22,0.221-0.441,0.441-0.661,0.661c-8.218-1.763-15.594-7.09-22.823-10.254c-7.717-3.528-15.437-7.057-23.154-10.585
			c10.804-63.723,21.612-127.465,32.416-191.188c0.221-0.11,0.441-0.22,0.662-0.331c79.157,44.871,158.339,89.755,237.496,134.625
			c25.136,14.112,50.28,28.227,75.417,42.339c7.717,4.545,25.49,11.649,30.762,17.531c0.441,0,0.882,0,1.323,0
			c7.056-20.175,14.114-40.357,21.17-60.532c1.467-3.777,4.801-17.582,7.608-18.854c8.93,7.828,17.863,15.657,26.793,23.485
			c5.012,4.026,12.232,8.64,15.546,14.223c-10.584,23.924-21.171,47.854-31.754,71.778c-3.29,7.481-13.698,25.321-14.223,33.077
			c43.437,0,86.888,0,130.325,0c0.11-0.22,0.221-0.441,0.331-0.662c-22.38-10.914-44.767-21.832-67.147-32.747
			c7.166-14.222,14.334-28.448,21.5-42.67c0.331-0.11,0.662-0.221,0.992-0.331c36.492,17.86,72.994,35.725,109.486,53.585
			c-1.985,7.607-3.969,15.217-5.954,22.823c18.742,0,37.49,0,56.232,0c11.355-54.683,22.714-109.382,34.07-164.064
			c5.417-2.935,15.148-0.921,22.162-1.985c19.514-1.102,39.033-2.205,58.547-3.308c2.866,14.442,5.734,28.889,8.6,43.331
			c-3.414,2.632-11.015,2.016-15.877,2.977c-13.34,1.984-26.684,3.969-40.024,5.954c-0.221,0.331-0.441,0.662-0.662,0.992
			c-4.851,38.587-9.703,77.185-14.554,115.771c0,0.11,0,0.22,0,0.331c17.64,0,35.284,0,52.924,0
			c-1.213-17.419-2.426-34.843-3.638-52.262c19.734-2.866,39.474-5.734,59.209-8.6c18.852-2.756,37.71-5.513,56.563-8.269
			c10.363-1.433,20.73-2.867,31.093-4.3c-0.11,24.475-0.22,48.957-0.331,73.432c51.044,0,102.104,0,153.149,0
			c3.087-31.42,6.175-62.85,9.262-94.271c0.772-9.481,1.544-18.965,2.315-28.447c4.622-27.762,5.224-56.423,10.585-82.363
			c3.748-23.593,7.498-47.193,11.246-70.786c2.333-3.195,9.328-4.019,13.231-5.623c12.348-4.851,24.699-9.703,37.047-14.554
			c0.22,0.11,0.441,0.221,0.661,0.331c-2.866,20.396-5.734,40.798-8.6,61.193c-3.418,22.821-6.836,45.649-10.254,68.47
			c-3.859,26.459-7.719,52.927-11.577,79.386c-4.3,28.885-8.6,57.778-12.9,86.663c18.411,0,36.828,0,55.24,0
			c8.269-75.188,16.54-150.4,24.808-225.588c6.108,0.771,11.328,5.128,16.208,7.608c13.56,6.946,27.125,13.893,40.685,20.839
			c40.792,21.167,81.595,42.341,122.387,63.509c5.664-6.504,9.643-23.043,13.231-31.754c9.261-22.711,18.524-45.429,27.785-68.14
			c1.576-5.769-8.218-16.987-8.931-23.154c30.869-25.577,61.748-51.162,92.617-76.74c-0.78-5.851-5.175-11.098-7.608-15.877
			c-6.394-12.899-12.791-25.802-19.185-38.701c-20.616-41.894-41.239-83.8-61.855-125.694c0.625-6.678,9.005-17.65,12.239-23.154
			c10.694-19.955,21.391-39.915,32.085-59.87c0.551-0.221,1.103-0.441,1.654-0.662c18.081,13.56,36.167,27.125,54.247,40.685
			c5.855,4.203,12.665,13.182,20.177,14.885c36.382-21.829,72.774-43.664,109.156-65.493c0.11,0,0.22,0,0.331,0
			c1.545,2.229,5.8,39.271,4.631,42.339c-2.271,3.913-22.332,14.32-27.454,17.531c-20.506,13.009-41.018,26.022-61.524,39.031
			c-4.711,3.104-21.731,16.053-26.462,16.539c-14.663-13.34-29.33-26.684-43.993-40.024c-0.441,0-0.882,0-1.323,0
			c-6.725,9.04-13.452,18.083-20.177,27.123c-0.349,4.688,15.694,32.491,18.854,38.701c16.758,34.066,33.52,68.143,50.278,102.209
			c5.402,11.025,10.806,22.053,16.208,33.077c1.023,2.002,6.144,8.622,4.962,11.577c-20.285,15.214-40.577,30.433-60.863,45.647
			c-14.001,10.363-28.007,20.73-42.008,31.093c0.935,6.411,12.371,24.774,11.577,28.777c-15.875,33.515-31.756,67.04-47.632,100.555
			c10.584,6.064,21.171,12.129,31.754,18.193c3.307-1.03,4.352-7.356,5.954-10.254c4.961-9.261,9.924-18.524,14.885-27.785
			c19.845-38.145,39.695-76.302,59.539-114.448c2.787-1.103,6.719,1.801,9.262,3.308c4.471,2.65,27.591,14.92,29.108,17.862
			c0.653,3.753-4.11,10.38-5.623,13.893c-5.843,13.34-11.688,26.684-17.531,40.024c-13.45,30.979-26.904,61.968-40.354,92.948
			c-7.276,16.647-14.555,33.3-21.831,49.947c-4.784-1.101-9.002-4.963-12.9-7.277c-9.812-5.733-19.627-11.467-29.439-17.2
			c-33.956-20.175-67.922-40.357-101.879-60.532c-3.086,3.615-5.411,25.478-6.946,32.085c-5.843,27.231-11.688,54.47-17.531,81.701
			c0,0.11,0,0.221,0,0.331c16.206,0.11,32.418,0.22,48.624,0.331c3.418-14.112,6.836-28.228,10.254-42.339c0.331,0,0.662,0,0.992,0
			c16.206,11.796,32.417,23.596,48.624,35.393c-0.662,1.984-1.323,3.969-1.985,5.954c0,0.331,0,0.661,0,0.992
			c32.854,0,65.717,0,98.571,0c1.308-1.188,7.132-16.685,8.6-19.516c9.04-17.86,18.083-35.726,27.124-53.586
			c2.837-5.574,7.866-19.407,12.239-22.823c3.679-0.817,21.493,10.372,25.801,12.569c19.073,10.033,38.151,20.068,57.224,30.101
			c5.992,3.074,22.795,9.459,26.131,14.223c-3.139,5.706-18.991,29.094-23.485,32.085c-22.16-11.135-44.326-22.273-66.486-33.408
			c-4.41,10.032-8.821,20.068-13.231,30.1c-1.406,3.234-3.966,5.945-4.3,10.254c39.689,0,79.39,0,119.079,0
			c0-33.736,0-67.481,0-101.217c-7.056-2.205-14.114-4.411-21.169-6.615c-18.301-6.284-36.608-12.57-54.909-18.854
			c-4.902-1.724-20.063-5.231-22.493-8.6c5.402-12.017,10.806-24.038,16.208-36.054c1.979-4.614,3.402-12.454,7.277-15.216
			c24.695,10.473,49.398,20.95,74.094,31.424c0.331,0,0.661,0,0.992,0c0-19.624,0-39.254,0-58.878
			c-11.44-2.108-27.379-13.181-38.039-17.862c-24.034-11.796-48.075-23.596-72.109-35.393c0.545-3.925,3.465-6.187,5.292-8.931
			c5.953-9.261,11.908-18.524,17.862-27.785c3.618-1.863,17.156,6.035,21.5,7.939c14.553,6.284,29.11,12.57,43.662,18.854
			c6.53,2.847,14.073,8.55,21.831,9.262c0-20.285,0-40.577,0-60.862c-18.852-7.717-37.71-15.437-56.562-23.154
			c-0.221-0.551-0.441-1.103-0.661-1.654c14.112-21.057,28.227-42.121,42.339-63.178c2.478-3.723,12.065-20.355,14.885-20.839
			c0-73.645,0-147.312,0-220.957c-1.543,0-3.087,0-4.631,0C1916.823,417.723,1918.437,409.268,1919.118,404.889z M848.401,726.402
			c0.662,0.11,1.323,0.221,1.985,0.331c4.3,14.442,8.601,28.889,12.9,43.331c-19.073,12.017-38.151,24.037-57.224,36.054
			c0,0.331,0,0.662,0,0.992c5.512,5.623,11.026,11.247,16.539,16.87c0,0.441,0,0.882,0,1.323
			c-6.946,9.04-13.893,18.083-20.839,27.123c-0.331,0-0.662,0-0.992,0c-16.206-19.845-32.418-39.695-48.624-59.539
			c16.206-14.553,32.418-29.11,48.624-43.662C816.645,741.619,832.526,734.009,848.401,726.402z M768.023,641.393
			c5.5-6.139,31.53-10.826,40.354-15.877c0.331,0,0.662,0,0.992,0c4.41,11.796,8.821,23.596,13.231,35.393
			c1.802,4.6,5.079,9.919,5.292,15.546c-8.379,4.079-16.76,8.16-25.139,12.239c-4.354,2.225-9.568,6.24-14.885,6.946
			c-3.324-2.995-3.983-11.021-5.623-15.546C777.506,667.195,772.764,654.292,768.023,641.393z M935.064,476.006
			c-2.359,2.932-6.634,4.275-9.923,6.285c-8.489,5.182-16.981,10.365-25.47,15.546c-21.719,13.45-43.444,26.904-65.163,40.354
			c-9.591,5.843-19.186,11.688-28.777,17.531c-0.11,0-0.221,0-0.331,0c-1.98-3.771-1.385-9.756-2.315-14.554
			c-1.543-10.143-3.087-20.288-4.631-30.431c7.472-7.578,18.758-12.248,27.785-18.193c17.529-11.355,35.064-22.714,52.593-34.07
			c0.824-5.553-3.274-12.06-4.962-16.87c-4.851-14.553-9.703-29.11-14.554-43.662c-24.806,9.481-49.619,18.965-74.424,28.447
			c-0.11,0-0.221,0-0.331,0c-3.385-6.302-3.31-15.411-5.292-22.823c-1.654-7.387-3.308-14.775-4.962-22.162
			c34.618-16.758,69.246-33.52,103.863-50.278c0.331,0.11,0.662,0.221,0.992,0.331c2.63,1.736,12.683,32.525,14.885,38.039
			C907.719,404.996,921.394,440.506,935.064,476.006z M602.305,271.918c0-0.551,0-1.103,0-1.654
			c16.206-22.49,32.418-44.988,48.624-67.478c62.951-20.175,125.921-40.357,188.872-60.532c0.551,0,1.103,0,1.654,0
			c7.387,12.789,14.775,25.581,22.162,38.37c0,0.11,0,0.221,0,0.331c-48.729,16.096-97.473,32.197-146.202,48.293
			c-20.317,6.431-48.043,10.699-57.555,28.116c-0.11,0.441-0.221,0.882-0.331,1.323c19.514,19.514,39.033,39.033,58.547,58.547
			c14.332-13.671,28.668-27.345,43.001-41.016c60.415-21.167,120.849-42.341,181.264-63.509c-0.37-5.327-4.335-9.366-6.285-13.562
			c-7.166-14.332-14.334-28.668-21.5-43.001c1.79-2.536,21.517-11.452,25.47-12.239c0.551,0,1.103,0,1.654,0
			c20.175,30.097,40.357,60.204,60.532,90.301c0,0.441,0,0.882,0,1.323c-19.293,7.938-38.592,15.878-57.885,23.816
			c-52.698,21.608-105.412,43.223-158.11,64.832c-24.585,19.073-49.178,38.151-73.763,57.224
			C675.741,344.913,639.017,308.41,602.305,271.918z M507.704,534.553c17.529-29.326,35.064-58.66,52.593-87.986
			c0.551,0,1.103,0,1.654,0c10.804,14.663,21.612,29.33,32.416,43.993c0.518,3.075-9.451,15.648-11.577,18.854
			c-11.356,17.419-22.714,34.843-34.07,52.262C544.77,560.622,509.459,537.308,507.704,534.553z M31.719,497.175
			c44.54-10.143,89.093-20.288,133.633-30.431c0.331,0,0.662,0,0.992,0c6.946,20.396,13.893,40.798,20.839,61.193
			c-1.134,3.665-8.744,5.101-11.908,6.946c-13.45,7.056-26.904,14.114-40.354,21.17c-0.11,0-0.221,0-0.331,0
			c-2.756-8.158-5.513-16.319-8.269-24.477c-1.279-1.372-17.186,2.121-20.839,2.977c-20.396,4.3-40.798,8.601-61.193,12.9
			c-0.441-0.221-0.882-0.441-1.323-0.662c-3.748-16.427-7.498-32.859-11.246-49.285C31.719,497.396,31.719,497.286,31.719,497.175z
			 M56.197,684.394c-7.607-29.326-15.216-58.66-22.823-87.986c0-0.11,0-0.221,0-0.331c2.9-1.503,6.94-0.985,10.916-1.654
			c14.442-1.874,28.889-3.749,43.331-5.623c0.992,0,1.985,0,2.977,0c4.52,16.206,9.042,32.418,13.562,48.624
			c0.721,2.592,4.485,15.452,3.639,16.87c-16.647,10.143-33.3,20.288-49.947,30.431C57.299,684.614,56.748,684.504,56.197,684.394z
			 M257.638,724.748c-2.363,3.362-28.103,10.241-34.07,12.569c-33.184,11.466-66.379,22.935-99.563,34.401
			c-13.119-11.245-26.243-22.494-39.362-33.739c0-0.441,0-0.882,0-1.323c59.423-20.396,118.864-40.798,178.287-61.193
			c0.662,0,1.323,0,1.985,0C265.886,680.271,259.708,720.488,257.638,724.748z M174.614,638.085
			c-3.305-2.939-17.604-38.043-19.185-44.324c3.979-4.534,19.544-9.807,25.8-12.569c22.601-10.694,45.208-21.391,67.809-32.085
			c1.71-4.576-10.837-28.732-13.231-34.401c-10.584-24.806-21.171-49.619-31.754-74.424c-3.846-8.963-8.23-25.398-14.223-32.085
			c-10.033,1.654-20.068,3.308-30.1,4.962c-3.205-1.945-13.109-24.543-16.208-29.439c0-0.441,0-0.882,0-1.323
			c26.79-6.174,53.588-12.349,80.378-18.523c23.593,55.895,47.193,111.807,70.786,167.703c0.441,0,0.882,0,1.323,0
			c30.979-56.777,61.968-113.572,92.948-170.349c-1.555-7.531-9.559-15.157-13.562-21.17c-12.789-19.073-25.581-38.151-38.37-57.224
			c7.056-7.717,14.114-15.437,21.17-23.154c5.463,2.813,18.6,23.16,23.154,29.108c20.396,26.57,40.798,53.147,61.193,79.717
			c-0.962,7.338-10.81,19.807-14.554,26.131c-11.135,19.293-22.273,38.592-33.408,57.886
			c-21.829,38.476-43.664,76.964-65.493,115.44C277.6,591.334,226.099,614.713,174.614,638.085z M591.059,920.898
			c-7.416-1.735-14.987-9.362-21.17-13.231c-13.781-8.379-27.566-16.76-41.347-25.139c-48.729-29.436-97.473-58.881-146.202-88.317
			c-25.136-15.104-50.28-30.212-75.417-45.316c-1.479-2.305,3.298-20.919,4.3-24.808c4.63-22.931,9.262-45.87,13.893-68.801
			c4.861-3.087,12.664-3.387,18.854-4.962c15.214-3.748,30.433-7.498,45.647-11.246c1.444,2.19-5.029,16.076-6.615,19.846
			c-8.379,19.183-16.76,38.372-25.139,57.555c0.974,3.734,26.933,17.486,31.754,20.508c19.734,12.678,39.474,25.361,59.209,38.039
			c8.362,5.263,20.34,10.229,26.793,17.531c0.441,0,0.882,0,1.323,0c34.618-48.84,69.246-97.694,103.863-146.533
			c34.177-14.663,68.364-29.33,102.54-43.993c6.444-2.772,34.854-12.544,37.708-16.208c1.964-5.173-1.023-26.03-1.985-32.085
			c-1.984-27.231-3.969-54.47-5.954-81.701c-2.244-0.557-28.668,4.352-29.439,5.292c-5.071,28.113-10.144,56.234-15.216,84.347
			c-14.001,5.623-28.007,11.247-42.008,16.87c5.843-42.335,11.688-84.682,17.531-127.017c1.772-2.849,20.456-5.321,25.139-6.616
			c25.798-6.064,51.603-12.129,77.401-18.193c2.977,62.29,5.954,124.598,8.931,186.888c-39.579,17.75-79.169,35.505-118.748,53.255
			c-9.371,3.859-18.745,7.719-28.116,11.577c-6.212,3.619-18.928,27.629-23.485,35.062c-19.734,31.2-39.474,62.409-59.209,93.609
			c29.546,26.57,59.101,53.147,88.648,79.717C606.716,898.183,598.886,909.542,591.059,920.898z M904.302,873.928
			c-9.922,33.405-19.847,66.82-29.77,100.225c-3.748,13.45-7.498,26.904-11.246,40.354c-1.376,1.572-15.244-5.761-18.193-7.277
			c-17.857-9.184-38.984-17.751-52.593-31.424c-60.195-62.731-120.408-125.48-180.603-188.211
			c0.544-6.948,11.904-19.674,15.546-25.47c6.505-10.033,13.011-20.068,19.516-30.1c2.646-3.969,5.293-7.939,7.939-11.908
			c21.498-10.253,43.003-20.509,64.501-30.762c0.441,0,0.882,0,1.323,0c6.394,18.962,12.791,37.931,19.185,56.893
			c-3.402,5.47-19.6,11.836-25.8,15.546c-6.835,3.859-13.673,7.719-20.508,11.577c-5.953,7.056-11.908,14.114-17.862,21.17
			c24.585,25.908,49.178,51.824,73.763,77.732c10.422,12.906,24.244,23.069,34.731,36.054c13.23,13.671,26.463,27.345,39.693,41.016
			c0.331,0,0.662,0,0.992,0c12.237-31.42,24.479-62.85,36.716-94.271c7.827-12.017,15.657-24.037,23.485-36.054
			c0.221-0.11,0.441-0.221,0.661-0.331c3.472,3.403,9.964,28.868,12.239,35.393C899.475,858.262,905.069,869.287,904.302,873.928z
			 M1674.014,97.931c35.72-12.789,71.451-25.581,107.171-38.37c0.551,0,1.103,0,1.654,0c8.599,72.102,17.201,144.225,25.8,216.326
			c-14.773,28.774-29.551,57.558-44.324,86.332c-10.694-6.946-21.391-13.893-32.085-20.839
			c12.458-28.995,24.919-57.999,37.377-86.994c1.644-7.342-1.797-17.33-2.977-23.816c-2.205-16.427-4.411-32.859-6.615-49.285
			c-1.764-13.009-3.528-26.022-5.292-39.031c-0.811-4.243,0.035-11.74-2.646-14.223c-32.192,11.356-64.394,22.714-96.586,34.07
			c-3.333-2.972-4.431-9.864-6.285-14.223c-5.071-11.686-10.144-23.376-15.216-35.062
			C1636.169,109.603,1667.733,100.378,1674.014,97.931z M1341.917,37.399c67.361,7.938,134.742,15.878,202.103,23.816
			c29.767,57.549,59.542,115.115,89.309,172.664c-15.909,16.603-38.203,32.975-56.563,47.301
			c-10.522,8.21-20.371,20.286-32.416,26.462c-15.876-17.199-31.756-34.402-47.632-51.601c3.268-5.119,16.239-11.034,21.831-14.554
			c15.435-9.812,30.874-19.627,46.308-29.439c-15.986-39.468-31.976-78.949-47.962-118.417c-6.729-3.872-31.845-0.435-42.008-1.985
			c-40.351-1.323-80.713-2.646-121.063-3.969c-2.962-5.221-3.348-12.846-4.962-19.185c-2.536-10.143-5.072-20.288-7.608-30.431
			C1341.476,37.84,1341.696,37.62,1341.917,37.399z M1403.772,569.946c-7.056,9.371-14.114,18.745-21.17,28.116
			c-1.994,2.719-3.903,7.355-6.946,8.931c-0.22-0.11-0.441-0.221-0.661-0.331c-8.93-47.847-17.863-95.709-26.793-143.556
			c3.308-11.796,6.616-23.596,9.923-35.393c1.238-4.026,3.151-7.911,3.308-12.9c0.11-0.11,0.221-0.221,0.331-0.331
			c7.835,0.722,20.003,9.774,26.793,13.231c25.908,13.23,51.824,26.463,77.732,39.693c0.441,0,0.882,0,1.323,0
			c8.82-17.97,17.642-35.946,26.462-53.916c5.455-10.738,9.557-22.198,15.877-32.085c-3.307-1.984-6.616-3.969-9.923-5.954
			c-8.489-4.851-16.981-9.703-25.47-14.554c-28.003-16.096-56.014-32.197-84.017-48.293c-0.918-7.037,9.565-28.609,11.908-36.716
			c4.462,0.537,7.733,2.811,11.246,4.3c10.473,4.52,20.95,9.042,31.424,13.562c43.217,18.962,86.447,37.931,129.664,56.893
			c0.11,0.221,0.22,0.441,0.331,0.662c-0.781,3.953-4.34,7.457-6.285,10.585c-5.292,8.599-10.585,17.201-15.877,25.8
			c-19.404,31.31-38.813,62.63-58.216,93.94c-1.543,14.994-3.087,29.992-4.631,44.985c-9.371,5.292-18.745,10.585-28.116,15.877
			c-0.551-0.11-1.103-0.221-1.654-0.331c-0.841-4.988-3.241-31.707-5.623-34.731c-21.167-13.781-42.341-27.566-63.509-41.347
			c-0.22,0.11-0.441,0.22-0.661,0.331C1394.951,500.921,1399.362,535.438,1403.772,569.946z M1345.555,204.771
			c2.874-4.215,28.673-14.599,35.062-17.862c30.979-15.435,61.968-30.874,92.948-46.308c3.952,1.323,5.775,9.64,7.608,13.231
			c6.505,13.119,13.011,26.243,19.516,39.362c-2.853,3.907-27.249,13.161-33.408,15.877c-26.349,12.237-52.706,24.479-79.055,36.716
			c-10.363,4.741-20.73,9.483-31.093,14.223c-3.969,12.017-7.939,24.038-11.908,36.054c-9.591,27.231-19.186,54.47-28.777,81.701
			c-2.655,6.824-11.278,37.47-14.885,40.354c-4.136,1.151-24.902-8.808-31.423-9.923c-0.331-0.441-0.662-0.882-0.992-1.323
			C1294.614,339.513,1320.088,272.132,1345.555,204.771z M1336.624,648.009c-1.953,2.309-38.958,22.983-42.339,23.485
			c-3.569-3.557-6.414-22.722-8.269-28.777c-7.607-27.341-15.216-54.691-22.823-82.032c9.371,2.756,18.745,5.513,28.116,8.269
			c4.189,7.166,8.38,14.334,12.569,21.5c7.828,13.56,15.657,27.125,23.485,40.685
			C1330.305,636.08,1335.304,641.997,1336.624,648.009z M1049.512,584.169c-8.489,7.828-16.981,15.657-25.47,23.485
			c-4.41,3.969-8.821,7.939-13.231,11.908c-0.993,3.421,7.519,18.864,8.931,22.162c9.04,21.498,18.083,43.003,27.123,64.501
			c-2.229,3.182-34.022,19.952-39.362,22.162c-5.602-5.838-10.035-21.938-13.562-30.1c-8.048-17.75-16.099-35.505-24.147-53.255
			c-4.079-9.04-8.159-18.083-12.239-27.123c25.467-24.475,50.942-48.957,76.409-73.432c3.294,0.603,29.34,21.351,31.754,24.477
			C1062.103,574.899,1054.872,579.851,1049.512,584.169z M1138.821,749.887c-0.551,0-1.103,0-1.654,0
			c-21.278-45.973-42.562-91.96-63.84-137.933c40.681-34.948,81.375-69.907,122.056-104.856
			c11.686-9.702,23.376-19.406,35.062-29.108c1.433-11.355,2.867-22.714,4.3-34.07c20.947,7.387,41.9,14.775,62.847,22.162
			c3.323,5.519,2.79,15.216,4.3,22.162c2.756,15.545,5.513,31.094,8.269,46.639c-0.11,0.11-0.22,0.221-0.331,0.331
			c-21.057-6.174-42.121-12.349-63.178-18.523c-37.594,33.074-75.2,66.158-112.794,99.232c8.93,18.081,17.863,36.167,26.793,54.247
			c0.441,0.11,0.882,0.221,1.323,0.331c24.695-20.285,49.398-40.577,74.094-60.862c0.551,0.11,1.103,0.221,1.654,0.331
			c4.961,17.419,9.924,34.843,14.885,52.262c-3.42,5.742-20.945,16.18-27.124,20.839
			C1196.599,705.341,1167.706,727.617,1138.821,749.887z M1414.026,726.071c-11.466,5.071-22.935,10.144-34.401,15.216
			c-42.776,19.183-85.564,38.372-128.34,57.555c-1.654,24.585-3.308,49.178-4.962,73.763c-19.404-4.079-38.813-8.159-58.216-12.239
			c-1.635-3.66,1.033-18.77,1.985-23.816c3.087-23.703,6.175-47.413,9.262-71.117c1.928-3.289,9.092-5.173,12.569-6.946
			c11.135-5.512,22.273-11.026,33.408-16.539c15.435-7.828,30.874-15.657,46.308-23.485c18.411-8.82,36.828-17.642,55.239-26.462
			c9.922-4.851,19.847-9.703,29.77-14.554c4.18-2.133,8.675-5.971,14.223-6.285c11.245,16.317,22.494,32.638,33.739,48.955
			C1423.569,723.487,1417.138,724.701,1414.026,726.071z M1667.399,729.379c-13.891,10.253-27.786,20.509-41.678,30.762
			c-5.302-4.32-13.387-26.844-17.2-34.401c-15.104-30.428-30.212-60.866-45.316-91.294c14.994-9.15,29.992-18.304,44.985-27.454
			c0.331,0,0.662,0,0.992,0C1628.586,647.784,1647.995,688.588,1667.399,729.379z M1619.106,436.644
			c-11.135,17.64-22.273,35.284-33.408,52.924c1.764,27.341,3.528,54.691,5.292,82.032c-30.759,18.411-61.527,36.828-92.286,55.239
			c-0.331,0.441-0.662,0.882-0.992,1.323c1.173,5.851,5.813,11.156,8.6,15.877c7.497,13.23,14.996,26.463,22.493,39.693
			c25.688,45.532,51.383,91.078,77.07,136.61c-8.158,14.994-16.319,29.992-24.477,44.985c-2.86,4.895-5.006,13.405-9.592,16.539
			c-39.138-19.734-78.287-39.474-117.425-59.209c-2.652-4.806-1.056-38.458-1.323-47.631c3.332-1.12,18.982,6.72,23.154,8.6
			c21.167,8.71,42.341,17.422,63.509,26.131c0.331,0,0.661,0,0.992,0c-8.709-14.773-17.422-29.551-26.131-44.324
			c-20.616-34.287-41.239-68.584-61.855-102.871c-5.953-9.812-11.908-19.627-17.862-29.439c-2.288-3.74-5.641-7.322-6.946-11.908
			c33.074-18.852,66.158-37.71,99.232-56.562c2.095-23.593,4.19-47.193,6.285-70.786c12.017-18.962,24.037-37.931,36.054-56.893
			c22.711-36.492,45.429-72.995,68.14-109.486c13.009-20.175,26.022-40.357,39.031-60.532c-1.097-8.515-10.158-15.778-13.892-22.823
			c1.968-2.86,6.858-3.522,10.254-4.962c11.907-5.182,23.817-10.365,35.724-15.546c0.441,0.11,0.882,0.221,1.323,0.331
			c3.969,16.206,7.939,32.418,11.908,48.624C1687.69,327.262,1653.393,381.961,1619.106,436.644z M1801.363,457.152
			c-6.702,3.956-23.715,15.981-30.762,17.2c-32.743-20.727-65.497-41.459-98.24-62.186c0.705-2.924,21.194-34.172,23.154-35.393
			c29.436,17.199,58.881,34.402,88.317,51.601c7.035-1.042,13.692-8.456,19.185-11.908c8.709-5.512,17.422-11.026,26.131-16.539
			c2.646-8.048,5.293-16.099,7.939-24.147c7.497-20.285,14.996-40.577,22.493-60.862c0.22,0,0.441,0,0.661,0
			c3.969,34.177,7.939,68.363,11.908,102.54C1848.555,430.688,1824.955,443.922,1801.363,457.152z M1873.802,631.139
			c-10.694,9.812-21.391,19.627-32.085,29.439c-9.09,7.338-18.202,20.4-28.447,25.8c-4.65-4.775-7.115-12.309-10.585-18.193
			c-4.961-8.71-9.924-17.422-14.885-26.131c6.513-6.596,17.068-10.281,25.139-15.216c17.75-10.584,35.505-21.171,53.255-31.754
			c7.386-4.3,14.775-8.601,22.162-12.9c0.441,0,0.882,0,1.323,0c1.654,9.812,3.308,19.627,4.962,29.439
			C1889.46,618.889,1880.743,625.547,1873.802,631.139z"/>
		<path style="fill:#81C67A;" d="M1458.68,1080c18.191,0,36.387,0,54.578,0c6.615-38.697,13.232-77.405,19.847-116.102
			c-21.719-11.466-43.444-22.935-65.163-34.401C1464.855,979.66,1461.767,1029.837,1458.68,1080z"/>
		<path style="fill:#81C67A;" d="M1101.775,1055.192c-13.009,1.874-26.022,3.749-39.031,5.623
			c-1.761,4.209,0.601,13.326,0.662,19.185c18.191,0,36.387,0,54.578,0c-0.441-8.71-0.882-17.422-1.323-26.131
			C1112.966,1052.243,1105.81,1054.427,1101.775,1055.192z"/>
	</g>
</g>
</svg>
